<svg xmlns="http://www.w3.org/2000/svg" viewBox="0 0 772.49 593"><defs><style>.cls-1{fill:#aec7ff;}.cls-2{fill:#ebf4fb;}.cls-3{fill:#fff;}.cls-4{fill:#fcedd8;}.cls-5{fill:#d6e8f6;}.cls-6{fill:#f49d65;}.cls-7{fill:#ca8661;}.cls-8{fill:#384a79;}.cls-19,.cls-9{fill:none;stroke-miterlimit:10;}.cls-9{stroke:#f49d65;}.cls-10{fill:#769cd0;}.cls-11{fill:#f6f6f6;}.cls-12{fill:#e8e8e8;}.cls-13{fill:#fffeff;}.cls-14{fill:#e53028;}.cls-15{fill:#e3b378;}.cls-16{fill:#2a1ed1;}.cls-17{fill:#1c934c;}.cls-18{fill:#5374b7;}.cls-19{stroke:#384a79;stroke-width:12px;}.cls-20{fill:#384d7d;}.cls-21{fill:#324778;}.cls-22{fill:#cbdced;}.cls-23{fill:#f6bd95;}.cls-24{fill:#24407a;}.cls-25{fill:#2b3b66;}.cls-26{fill:#425685;}</style></defs><g id="Layer_2" data-name="Layer 2"><g id="Layer_1-2" data-name="Layer 1"><path class="cls-1" d="M369.25,20.92c59.55,23.79,52.08,28.17,75.88,50.55,24.38,23,23.55,38.75,83.33,45.37C544.7,118.63,622,96,641.54,128c18.6,30.48,15.25,50.92-2.6,75.45s-21.58,48.32-6,62.44c0,0,33.48,26,74.39,32.66s65.1,45.73,65.1,68.76c0,17.16,1.87,64.31-63.61,100.73C652.66,499.3,589.71,517.56,499.07,532c-31,4.95-74.59,10.17-127.24,16-48.82,5.42-45.45.38-126.08,2.8C107.06,554.94,70.67,542.26,58,537.72,28.25,527,3.8,511.67,5.72,503.19c2-8.65,29.58-2.15,50.44-21.47C68.93,469.89,74.57,451.34,73.9,436c-1.4-31.83-30.08-38-49.5-74.66-20.17-38.14-43-89.59,0-110.12,23.48-11.2,50.87,16,97.13-1.87,9-3.45,24-9.46,28-22.39,4.72-15.11-9.81-26-16.81-50.4-7.82-27.3-.53-51.68,1.87-59.72,11.74-39.32,44.09-61,69.48-78.07C219.26,28.58,234.17,17.16,257.65,12,298.63,3,342.66,10.29,369.25,20.92Z"/><path class="cls-2" d="M14.82,207.36l96.52,1a5.91,5.91,0,0,0,.75-4.66A5.95,5.95,0,0,0,109.2,200c-5.34-3.41-7.47-3.41-9.61-4.2s-7.84-.8-13.18-3.16c-3.42-1.51-3.92-6.05-11-6.84a54.82,54.82,0,0,0-6.77.79c-2.14.53-4.67,1.87-8.19,2.38S54,185.82,45.8,187.66s-7.13,5.79-12.14,8.4-5.34-3.16-13.89,1.05S10.54,204.47,14.82,207.36Z"/><path class="cls-2" d="M191.3,96.31l96.32,1.24s3.2-5.89-2.13-9.92-7.48-4-9.6-5-7.82-.93-13.15-3.73c-3.41-1.78-3.92-7.13-11-8a45.28,45.28,0,0,0-6.75.93c-2.13.62-4.62,2.17-8.17,2.8s-6.4-3.73-14.57-1.55-7.11,6.81-12.08,9.92-5.34-3.73-13.86,1.24S187,92.9,191.3,96.31Z"/><path class="cls-2" d="M21.29,66.27l120.6,1.24s4-5.89-2.67-9.92-9.34-4-12-5-9.79-.93-16.46-3.73c-4.27-1.78-4.9-7.13-13.8-8a70.66,70.66,0,0,0-8.45.93c-2.67.62-5.78,2.16-10.27,2.8S70.2,40.85,60,43,51.07,49.84,44.84,53s-6.68-3.73-17.35,1.24S16,62.86,21.29,66.27Z"/><path class="cls-2" d="M340.67,28.35l161.76,1.38s5.37-6.53-3.58-11.07-12.54-4.48-16.12-5.52S469.6,12.1,460.65,9c-5.73-2-6.54-7.95-18.5-9a110.34,110.34,0,0,0-11.34,1c-3.58.69-7.76,2.41-13.73,3.1S406.34,0,392.61,2.42s-11.94,7.6-20.3,11.06S363.36,9.33,349,14.87,333.54,24.55,340.67,28.35Z"/><path class="cls-2" d="M669.34,222.38l43.06.47a2.8,2.8,0,0,0-.93-3.84,13.61,13.61,0,0,0-4.29-1.93c-.93-.36-3.49-.36-5.88-1.43-1.53-.69-1.75-2.8-4.93-3.12a25.23,25.23,0,0,0-3,.36A27,27,0,0,1,689.7,214c-1.58.24-2.85-1.44-6.53-.6s-3.18,2.64-5.4,3.84-2.38-1.43-6.2.48S667.43,221.06,669.34,222.38Z"/><path class="cls-2" d="M692,197.85l70.15.78a4.41,4.41,0,0,0,.63-1.67,4.51,4.51,0,0,0-.07-1.79,4.44,4.44,0,0,0-.77-1.61,4.49,4.49,0,0,0-1.34-1.19,21.83,21.83,0,0,0-7-3.12c-1.55-.59-5.7-.59-9.58-2.36-2.49-1.13-2.81-4.49-8-5.08a37.11,37.11,0,0,0-4.92.59c-1.55.39-3.36,1.37-6,1.76s-4.67-2.35-10.62-.93-5.17,4.3-8.79,6.26-3.89-2.35-10.1.78S688.86,195.69,692,197.85Z"/><path class="cls-2" d="M645.58,329.16h-4.34v17.32h4.34Z"/><path class="cls-3" d="M618.2,315l.25,4.66a.42.42,0,0,1-.73.3.42.42,0,0,1-.12-.3l.24-4.66a.2.2,0,0,1,.06-.11.2.2,0,0,1,.24,0A.2.2,0,0,1,618.2,315Z"/><path class="cls-2" d="M609.86,331.8h17a12.83,12.83,0,0,0-7.94-12l-.56-.22-.72.3a12.84,12.84,0,0,0-7.78,11.91Z"/><path class="cls-2" d="M626.76,331.59H609.84v9.71h16.92Z"/><path class="cls-2" d="M634.69,341.3H610.58v49.86h24.11Z"/><path class="cls-2" d="M645.68,391.17h-11V341.3l11,4.23Z"/><path class="cls-3" d="M625,353.14l-1.87-.94a4.42,4.42,0,0,0-4.25.09l-1.92,1.1a3.39,3.39,0,0,0-1.71,2.95V368.8H627V356.36a3.64,3.64,0,0,0-2-3.22Z"/><path class="cls-3" d="M642.43,354.19l-1.08-.86a2,2,0,0,0-1.25-.42,1.83,1.83,0,0,0-1.21.5l-1.11.93a3.35,3.35,0,0,0-.77,1.19,3.5,3.5,0,0,0-.22,1.39v11h6.82V357a3.64,3.64,0,0,0-1.18-2.82Z"/><path class="cls-3" d="M642.43,377.43l-1.08-.86a1.84,1.84,0,0,0-1.25-.42,1.87,1.87,0,0,0-1.21.49l-1.11.94a3.35,3.35,0,0,0-.77,1.19,3.47,3.47,0,0,0-.22,1.39v11h6.82V380.25a3.64,3.64,0,0,0-1.18-2.82Z"/><path class="cls-3" d="M613.81,336.08l-.6-.31a1.47,1.47,0,0,0-1.37,0l-.61.35a1,1,0,0,0-.4.4,1.13,1.13,0,0,0-.16.54v4h3.74v-4a1.15,1.15,0,0,0-.16-.58A1.18,1.18,0,0,0,613.81,336.08Z"/><path class="cls-3" d="M619.73,336.08l-.6-.31a1.47,1.47,0,0,0-1.37,0l-.61.35a1.11,1.11,0,0,0-.55.94v4h3.73v-4a1.15,1.15,0,0,0-.16-.58A1.18,1.18,0,0,0,619.73,336.08Z"/><path class="cls-3" d="M625.66,336.08l-.61-.31a1.47,1.47,0,0,0-1.37,0l-.62.37a1.1,1.1,0,0,0-.4.4,1,1,0,0,0-.15.54v4h3.73v-4a1.06,1.06,0,0,0-.16-.58A1.13,1.13,0,0,0,625.66,336.08Z"/><path class="cls-3" d="M625,375.52l-1.87-.93a4.51,4.51,0,0,0-2.13-.5,4.64,4.64,0,0,0-2.12.58L617,375.78a3.31,3.31,0,0,0-1.25,1.24,3.42,3.42,0,0,0-.46,1.71V391.2H627V378.75a3.62,3.62,0,0,0-2-3.23Z"/><path class="cls-2" d="M522.9,346.49h4.34V329.17H522.9Z"/><path class="cls-3" d="M550.27,315l-.25,4.66a.42.42,0,0,0,.73.3.42.42,0,0,0,.12-.3l-.24-4.66a.2.2,0,0,0-.06-.11.2.2,0,0,0-.24,0A.2.2,0,0,0,550.27,315Z"/><path class="cls-2" d="M558.62,331.8h-17a12.83,12.83,0,0,1,7.94-12l.56-.22.72.3a12.83,12.83,0,0,1,7.79,11.91Z"/><path class="cls-2" d="M541.72,341.31h16.92V331.6H541.72Z"/><path class="cls-2" d="M533.78,391.16h24.11V341.3H533.78Z"/><path class="cls-2" d="M522.8,391.17h11V341.3l-11,4.23Z"/><path class="cls-3" d="M543.47,353.14l1.87-.94a4.42,4.42,0,0,1,4.25.09l1.92,1.1a3.39,3.39,0,0,1,1.71,2.95V368.8H541.51V356.36a3.6,3.6,0,0,1,.53-1.89A3.52,3.52,0,0,1,543.47,353.14Z"/><path class="cls-3" d="M526,354.19l1.08-.86a1.93,1.93,0,0,1,1.25-.42,1.83,1.83,0,0,1,1.21.5l1.11.93a3.35,3.35,0,0,1,.77,1.19,3.5,3.5,0,0,1,.22,1.39v11h-6.76V357a3.63,3.63,0,0,1,.25-1.53A3.68,3.68,0,0,1,526,354.19Z"/><path class="cls-3" d="M526,377.43l1.08-.86a1.82,1.82,0,0,1,1.25-.42,1.87,1.87,0,0,1,1.21.49l1.11.94a3.35,3.35,0,0,1,.77,1.19,3.47,3.47,0,0,1,.22,1.39v11h-6.76V380.25a3.67,3.67,0,0,1,.25-1.54A3.73,3.73,0,0,1,526,377.43Z"/><path class="cls-3" d="M554.66,336.08l.6-.31a1.47,1.47,0,0,1,1.37,0l.61.35a1,1,0,0,1,.4.4,1.13,1.13,0,0,1,.16.54v4h-3.74v-4a1.15,1.15,0,0,1,.16-.58A1.18,1.18,0,0,1,554.66,336.08Z"/><path class="cls-3" d="M548.74,336.08l.6-.31a1.47,1.47,0,0,1,1.37,0l.61.35a1.11,1.11,0,0,1,.55.94v4h-3.73v-4a1.15,1.15,0,0,1,.16-.58A1.18,1.18,0,0,1,548.74,336.08Z"/><path class="cls-3" d="M542.81,336.08l.61-.31a1.47,1.47,0,0,1,1.37,0l.61.35a1.1,1.1,0,0,1,.4.4,1,1,0,0,1,.15.54v4h-3.73v-4a1.15,1.15,0,0,1,.16-.58A1.23,1.23,0,0,1,542.81,336.08Z"/><path class="cls-3" d="M543.47,375.52l1.87-.93a4.51,4.51,0,0,1,2.13-.5,4.64,4.64,0,0,1,2.12.58l1.92,1.11a3.31,3.31,0,0,1,1.25,1.24,3.42,3.42,0,0,1,.46,1.71V391.2H541.51V378.75a3.6,3.6,0,0,1,2-3.23Z"/><path class="cls-3" d="M653.24,334.58h6.49a4.73,4.73,0,0,0-.83-2.67,4.67,4.67,0,0,0-2.2-1.72l-.22-.08-.28.11a4.67,4.67,0,0,0-3,4.36Z"/><path class="cls-3" d="M657.74,331a6.24,6.24,0,0,0-2.51,0l-.1-.41a6.51,6.51,0,0,1,2.71,0Z"/><path class="cls-3" d="M656.69,328.42h-.42v1.71h.42Z"/><path class="cls-3" d="M656.48,329.17a.3.3,0,0,1-.18-.06.28.28,0,0,1-.13-.15.41.41,0,0,1,0-.19.32.32,0,0,1,.1-.17.26.26,0,0,1,.17-.09.31.31,0,0,1,.19,0,.32.32,0,0,1,.15.13.31.31,0,0,1,.06.19.3.3,0,0,1-.1.23A.31.31,0,0,1,656.48,329.17Zm0-.42-.06,0a.09.09,0,0,0,0,.07c0,.1.18.1.18,0a.09.09,0,0,0,0-.07A.09.09,0,0,0,656.48,328.75Z"/><path class="cls-3" d="M656.48,330a.4.4,0,0,1-.21-.07.39.39,0,0,1-.14-.17.34.34,0,0,1,0-.22.35.35,0,0,1,.3-.3.34.34,0,0,1,.22,0,.39.39,0,0,1,.17.14.33.33,0,0,1,.07.21.37.37,0,0,1-.11.27A.38.38,0,0,1,656.48,330Zm0-.42h0Z"/><path class="cls-2" d="M661.1,392.85h-8.85l1.08-58.14h6.16Z"/><path class="cls-2" d="M660.68,334.71h-8.55a.42.42,0,0,0-.42.43v.23a.42.42,0,0,0,.42.42h8.55a.42.42,0,0,0,.42-.42v-.23A.42.42,0,0,0,660.68,334.71Z"/><path class="cls-3" d="M672.79,299h10.54a7.66,7.66,0,0,0-4.92-7.14l-.34-.14-.45.18a7.72,7.72,0,0,0-3.5,2.81A7.64,7.64,0,0,0,672.8,299Z"/><path class="cls-3" d="M680.09,293.1a10,10,0,0,0-4.07,0l-.17-.66a10.2,10.2,0,0,1,4.4,0Z"/><path class="cls-3" d="M678.4,288.94h-.69v2.77h.69Z"/><path class="cls-3" d="M678.06,290.16a.53.53,0,0,1-.3-.09.52.52,0,0,1-.2-.24.55.55,0,0,1,0-.31.51.51,0,0,1,.15-.28.49.49,0,0,1,.27-.15.54.54,0,0,1,.56.23.55.55,0,0,1,.09.3.57.57,0,0,1-.16.39A.54.54,0,0,1,678.06,290.16Zm0-.69a.16.16,0,0,0-.11,0,.13.13,0,0,0,0,.1c0,.16.29.16.29,0a.15.15,0,0,0,0-.09.16.16,0,0,0-.1,0Z"/><path class="cls-3" d="M678.06,291.42a.59.59,0,0,1-.34-.1.67.67,0,0,1-.23-.27.64.64,0,0,1,0-.36.59.59,0,0,1,.17-.31.61.61,0,0,1,.31-.18.63.63,0,0,1,.36,0,.6.6,0,0,1,.28.22.59.59,0,0,1,.1.34.61.61,0,0,1-.61.62Zm0-.69,0,0a.08.08,0,0,0,0,.05c0,.07.13.07.13,0a.05.05,0,0,0,0,0l0,0Z"/><path class="cls-2" d="M685.56,393.59H671.18l1.75-94.42h10Z"/><path class="cls-2" d="M684.93,299.17h-14a.62.62,0,0,0-.62.62v.5a.62.62,0,0,0,.62.62h14a.63.63,0,0,0,.63-.62v-.5A.63.63,0,0,0,684.93,299.17Z"/><path class="cls-3" d="M610.65,329.37h-52v61.26h52Z"/><path class="cls-2" d="M608.21,333.8H561.06v56.82h47.15Z"/><path class="cls-2" d="M605.15,340.57h-41v49.85h41Z"/><path class="cls-3" d="M605.78,391.05H563.49V339.93h42.29Zm-41-1.27h39.75V341.2H564.76Z"/><path class="cls-3" d="M594.21,352l-4.61-2.39a10.86,10.86,0,0,0-5.24-1.22,11,11,0,0,0-5.19,1.43l-4.67,2.69a8.31,8.31,0,0,0-4.19,7.22V390.4h28.76V359.92a9,9,0,0,0-1.32-4.64A8.78,8.78,0,0,0,594.21,352Z"/><path class="cls-2" d="M560,320.5a3.29,3.29,0,0,1-2.43-1.07,3.12,3.12,0,0,1-.69-1.16,3.29,3.29,0,0,1-.17-1.35,40.87,40.87,0,0,1,26.1-34.53l.66-.25a3.31,3.31,0,0,1,2.4,0l1.2.47a40.84,40.84,0,0,1,25.57,34.31,3.46,3.46,0,0,1-.16,1.35,3.28,3.28,0,0,1-.7,1.16,3.09,3.09,0,0,1-1.1.79,3.21,3.21,0,0,1-1.33.28Z"/><path class="cls-4" d="M610,329.61H559.27v-9.33l1.8-.45a97.15,97.15,0,0,1,47.14,0l1.77.45Z"/><path class="cls-2" d="M610,329.61H559.27v-9.33l1.8-.45a97.15,97.15,0,0,1,47.14,0l1.77.45Z"/><path class="cls-3" d="M610,327.26h-.36l-1.8-.45a96.22,96.22,0,0,0-46.43,0l-1.8.45a1.42,1.42,0,0,1-.58,0,1.54,1.54,0,0,1-.54-.2,1.57,1.57,0,0,1-.43-.38,1.5,1.5,0,0,1-.24-.53,1.37,1.37,0,0,1,0-.57,1.46,1.46,0,0,1,.58-1,1.39,1.39,0,0,1,.52-.25l1.8-.44a99.1,99.1,0,0,1,47.86,0l1.8.44a1.48,1.48,0,0,1,1.14,1.62,1.53,1.53,0,0,1-.5.93,1.47,1.47,0,0,1-1,.36Z"/><path class="cls-2" d="M614.45,175.43l-2.42-2.8-7.15,3.74s-.55-1.36-.78-2.17,1.32-9.94,1.87-12.77a30.33,30.33,0,0,0,.43-7.67,8.18,8.18,0,0,0-1-4.22c-.73-1.39,1.09-.75-.21-3.2a14.1,14.1,0,0,1-1.29-3.47,8.29,8.29,0,0,1,0-4c.29-1.11.41-1.52.43-1.66a1.33,1.33,0,0,0,.35.36,1.43,1.43,0,0,0,.47.18,1.23,1.23,0,0,0,1-.26c1-.8,1.29-3.65,1.29-3.65s2.6-1.92,3.23-3.45l.06-.14a4.68,4.68,0,0,0,.14-2.49.51.51,0,0,0-.08-.28l1.11-2.31s-.18,1,.94.67l-.31-.93c1.2-.49,1.59-1.28,2.48-3.54a12.15,12.15,0,0,0,.55-1.87l5.85,2.47,6.88,2.9-5.81-4.12-6.45-4.6a23.87,23.87,0,0,0,0-2.93l12.58-.32-13.07-3a13.19,13.19,0,0,0-.5-1.5,16,16,0,0,0-1.09-2.19L622.83,98l-10.89,5.5a18.48,18.48,0,0,0-2.74-2.71l.86-16.36-3.62,14.65a8.78,8.78,0,0,0-3-.76l.25.76H603l-7.42-14.75,4.94,15.36a10.48,10.48,0,0,0-2.89,1.64l-5.93-3.3-3.88-2.14.18-.28a57.81,57.81,0,0,0,4-10.06c.71-2.22,1.36-4.56,1.86-6.75a53.37,53.37,0,0,1,1.38-5.29l.15.48c.48-1.37.94-2.09,1.87-4.58,1.66-4.4,2.54-5.29,3.57-8.17a22.26,22.26,0,0,0,1.63-7.55c-.06-2.13-.28-2.39-.28-2.39L603.4,50l1.07-1.16s1.29.24,1.7-.18.27-1.46.27-1.46,4.6,2.22,5.1,1.55,2.12-.18,2.39-1.64,0-2.69,1.05-3.19a8,8,0,0,1,2.35-.62l-1.09-1,1-.68-1.94-1,.49-1.2L613,37.89a7.7,7.7,0,0,0,.72-1.32c.3-.62.57-1.14.94-1,.63.17,1.26-.25,2.71-1s6.11-.94,7-1.87,1.87-1.56,1.95-2.32-2,.32-3.65.21-1.53-1.41-3-1.57,1.78-2.19,1.1-3.47-2.73-.73-4.56-.33-1.86-.94-4.39-.22-3.21,3.91-3.22,5.93A4.45,4.45,0,0,1,608,33l-.85-1.38-2,.51-1.66-1.67-1,.61L601.28,30l-.37,1.18-.79-.67-.3-.25a4.16,4.16,0,0,1,.17.41,3,3,0,0,1,.29,1.24,3,3,0,0,1-.24,1.26c-.58.26-1.81,1.55-2.41,1.59a.87.87,0,0,0-.45.09.91.91,0,0,0-.53.71.86.86,0,0,0,0,.45c.15.82,0,2,.72,3.07.27.39.58.85.86,1.29-.93,0-.81,1.33-.11,2.8a10.59,10.59,0,0,1-.39,1.57l-.86,1.15a1.18,1.18,0,0,0-.81-.41,1.15,1.15,0,0,0-.87.28,2.56,2.56,0,0,0-.53,1,2.44,2.44,0,0,0,0,1.14.69.69,0,0,0-.53,0H594l-.1,0-.09.07a2.53,2.53,0,0,0-.36.37,2.47,2.47,0,0,0-.24,2.16,1.25,1.25,0,0,0-.58,0,1.3,1.3,0,0,0-.53.22,1.21,1.21,0,0,0-.38.43,1.15,1.15,0,0,0-.15.56,3.19,3.19,0,0,0,.32,2.34,17.18,17.18,0,0,1-2,3.23l-.21-.65a1.82,1.82,0,0,1-.45.38,4.53,4.53,0,0,0-1.51,1.41,1.08,1.08,0,0,0-.4,0,1,1,0,0,0-.36.17.92.92,0,0,0-.26.29,1,1,0,0,0-.13.37c-.19,1,.33,1.4-.66,2.8s-.78,1.71-.78,1.71-.63,2.8.1,3.32a2.29,2.29,0,0,0,2.52-.2c.33-.45-1.87,3.19-3.11,5.6S579.06,83,577.79,88a80.24,80.24,0,0,1-2.62,8.23l-.61,1.62c-.87,2.33-1.72,4.38-3.07,5.07s-6.62,3.79-9.34,7.17-5,5.3-3.13,6.54,1.4,2.26,2.1,2.35c.34,0,0,.53-.49,1.26a4.75,4.75,0,0,0-.93,2.89c.24,2,1.11,1.48-1.05,5.44s-2.6,4-3.54,7.47-1.13,4.36-1.13,4.36a37.64,37.64,0,0,0-12.9,6.69c-.94.82-1.87,1.64-2.76,2.46-4.29,4.15-7,8.26-7.11,10-.19,2-.27,3.63-.27,3.63a49.49,49.49,0,0,0-8,8.52,67.17,67.17,0,0,0-5.83,9.66,38.54,38.54,0,0,0-1.55,4,22.63,22.63,0,0,0-1.86,3.55c-.18.46-.39.93-.6,1.38-.54,1.1-1.09,2-1.09,2s-6.93,9.17-8.71,12.77-2.86,5.31-4.07,7.76a92.79,92.79,0,0,0-3.62,9.25c-1.26,3.47-2.48,7.59-2.48,7.59a52.94,52.94,0,0,1-4.33,5.46l-2,2.3v-.1c-4.28,4.73-10.82,11.55-13.91,12.62-4,1.39-8.72.74-12.5.94a4.09,4.09,0,0,0-.93.13l-5.61-3.46v.15l-5-2.87L444,251l-5.67-.2-.54,5-5.4,7.16,16.4,12.39v-.2l23,17.29,25.7,19.4,15.88,12,3.8-5.31,5.25-1.87-2.59-4.53,4.58-5.76-2.25-2.8-5.71-7.22c.07-.5.15-1.06.26-1.68a69.35,69.35,0,0,1,4.58-14.33s.33,1.91,3.06-2.39c1-1.64,2.06-3.44,3-5.15h.07c1.23-2.27,2.33-4.3,3.2-5.6a40.65,40.65,0,0,1,4.48-5.24,3.49,3.49,0,0,0,2.24-.4,3.45,3.45,0,0,0,1.54-1.68c1.21-2.56,4.79-8.27,4.79-8.27s.82,1.15,2.85-2.25c1.25-2.07,9.91-15.64,16.54-26l7.76-12.13a11.48,11.48,0,0,1,1.86,3.33c.39,1.44,4.47,4.52,9.09,2.44a26.76,26.76,0,0,0,9-6.05c1.16-1.33,3.73-2.52,5.35-3.89a5.27,5.27,0,0,0,1.06-1.15c1.23-1.86,4.67-5.31,4.6-7.46s1.39-3.79,2.06-5.38,1-1.76,1.06-2.8.15-2.71.15-2.71l8.48-5Zm-22.21-59.37s-1.72,1-2.9,1.61-2.6,1.5-2.6,1.5a24.42,24.42,0,0,1-1.87-4.59,4,4,0,0,1,.07-2.88c.46-1.44,1.24-1.87,1.4-3.37a5.6,5.6,0,0,1,.5-1.66,7.88,7.88,0,0,0,.83-2.89l3.86,2.54,2.6,1.71c-.74,1.14-1.57,2.46-2,3.3l-.09.17c-.79,1.61-1.15,2.5-.59,3a2,2,0,0,0,1.49.4Zm3.3-10.26-.14.21-3.86-1.3-3.87-1.37c.16-1.77.71-3.44.14-4s-1-1.52-.16-3.14l4,3.3,4.43,3.63a4.26,4.26,0,0,0-.56,2.68Z"/><path class="cls-5" d="M643.47,593c17.25,0,31.25-3.49,31.25-7.8s-14-7.8-31.25-7.8-31.25,3.49-31.25,7.8S626.21,593,643.47,593Z"/><path class="cls-6" d="M674.74,553.8H639.87a10.68,10.68,0,0,0-10.68,10.68v14.46a10.68,10.68,0,0,0,10.68,10.67h34.87a10.68,10.68,0,0,0,10.69-10.67V564.48A10.69,10.69,0,0,0,674.74,553.8Z"/><path class="cls-7" d="M657.31,562.06c13.7,0,24.81-2.09,24.81-4.68S671,552.7,657.31,552.7s-24.82,2.09-24.82,4.68S643.6,562.06,657.31,562.06Z"/><path class="cls-6" d="M740.79,359.32s-13.56-3.31-19.86,6.13-22.42,51.24-22.15,81.66-40,104.52-40,104.52,42-87.24,48.8-96.63S761.69,367.66,740.79,359.32Z"/><path class="cls-8" d="M655.65,558.25s22.61-73.28,23.17-98.07-11.59-61.71-13.79-76-.83-31.69,10.2-33.89,17.09,7.16,20.4,19.28,8.4,43.15,11,58.4c3,17.91.55,38.57-11,67.19S655.65,558.25,655.65,558.25Z"/><path class="cls-3" d="M661.66,546l-.44-.33c22.73-30.11,26.92-71.72,26.41-101.33A297.39,297.39,0,0,0,681,386.66l.53-.13a297.65,297.65,0,0,1,6.62,57.77,223.84,223.84,0,0,1-4.76,52.07C679.1,515.93,671.75,532.63,661.66,546Z"/><path class="cls-8" d="M667,545.42s25.53-55.67,28.56-75.25-2.75-50.07-3-61.65,2.64-25.19,11.61-25.77,12.79,7.46,14.15,17.39,2.19,35.05,2.65,47.4c.53,14.49-3.58,30.6-15.74,52.08S667,545.42,667,545.42Z"/><path class="cls-3" d="M673.07,536.36l-.32-.31c21.15-21.46,28.79-54,31.48-77.45a237,237,0,0,0,.77-46.35h.44a237.76,237.76,0,0,1-.77,46.43,179,179,0,0,1-9.19,40.74C690,514.39,682.45,526.84,673.07,536.36Z"/><path class="cls-8" d="M658.05,552.25S691.4,511,698.89,495.32s11.71-42.15,14.69-51.86,8.75-20.4,15.29-19.13,7.06,8.72,5.31,17.26-8,29.57-11,39.92c-3.58,12.13-10.89,24.73-25.39,40.18S658.05,552.25,658.05,552.25Z"/><path class="cls-3" d="M664.82,545.9l-.14-.32c20.89-13.67,35.2-39.19,43.52-58.2A246.67,246.67,0,0,0,721.39,449l.33,0a247.19,247.19,0,0,1-13.21,38.45,185.83,185.83,0,0,1-17.66,32C682.83,531,674.09,539.84,664.82,545.9Z"/><path class="cls-6" d="M706,295a40.15,40.15,0,0,0-14.09-14.42l-.26.48a39.82,39.82,0,0,1,13.89,14.24c9.34,16.15,4.84,34.47-.68,47.13a57.56,57.56,0,0,0-3.42-17.6c-3.56-9.53-9.76-16.8-16.18-18.93l-.18.52c6.27,2.09,12.34,9.21,15.88,18.6,6.75,18.09,3.5,41.19-8.85,64,4.51-28.29-9.88-40-10-40.13l-.35.43c.15.11,14.52,11.8,9.73,40.23l.31.06c-.68,1.24-1.38,2.47-2.11,3.73-27.84,46.91-27.08,65-27.08,65.17h.55c0-.18-.75-18.15,27-64.86,7.9-13.32,12.71-26.53,14.28-39.27a72.37,72.37,0,0,0,.51-11.4l.29.13C715.42,319.88,711.27,304.12,706,295Z"/><path class="cls-6" d="M693.1,281.63s-15.43.55-25.36-17.07V262.9S692.59,258.5,693.1,281.63Z"/><path class="cls-6" d="M682.67,350.51s-15.44.55-25.36-17.08v-1.66S682.12,327.37,682.67,350.51Z"/><path class="cls-9" d="M695.36,315.25s-15.44.55-25.37-17.08v-1.65S694.8,292.11,695.36,315.25Z"/><path class="cls-10" d="M658.22,555.3S683,522.64,675.14,489s-24.74-45.19-28.28-50.39-6.48-28.57-6.48-28.57-17.44,5-22.48,23.41-4.14,34.8,10.84,51.21,20.54,23.94,23.65,36.28S658.22,555.3,658.22,555.3Z"/><path class="cls-8" d="M662.54,541.76l-.54-.15c5.06-18-1.37-49.65-18.67-66.39-17.55-17-12.27-51.14-12.21-51.48l.54.09c-.06.33-5.29,34.21,12.05,51S667.64,523.65,662.54,541.76Z"/><path class="cls-8" d="M548.8,98.87V493.62c0,15.87-12.66,28.78-28.15,28.78H346.94A27.82,27.82,0,0,1,329.19,516a29.21,29.21,0,0,1-10.6-22.62V94.07a32.58,32.58,0,0,1,12-25.29,30.91,30.91,0,0,1,19.54-7H512.55c16.18,0,30,11,34.6,26A37.31,37.31,0,0,1,548.8,98.87Z"/><path class="cls-11" d="M543.89,101.84l-.83,182.76V502.92a15.18,15.18,0,0,1-15,15.2H340.72a15.19,15.19,0,0,1-15.05-15.22v-7.08l.1-47.74v-1.31l.09-50.66.12-70.57.1-57.35v-.05l.1-50v-1l-.52-115.32S324,87.46,332.28,79s17.36-9.34,17.36-9.34H407a1.7,1.7,0,0,1,.88.25,1.62,1.62,0,0,1,.61.69,2.83,2.83,0,0,1,.11.31V71l.87,3.57a8.67,8.67,0,0,0,1.36,3,2.11,2.11,0,0,0,.21.31,8.53,8.53,0,0,0,6.29,3.4c5.69.33,13.3.52,17.39.6,4.09-.07,11.7-.27,17.39-.6A8.69,8.69,0,0,0,460,74.55l.94-3.64a1.66,1.66,0,0,1,1.59-1.27h57.4s9.1.84,17.36,9.33S543.89,101.84,543.89,101.84Z"/><path class="cls-12" d="M543.06,315.05l-.32-.37-.37-.41-.13-.14,0-.06-19.45-21.79-.66-.73-14.35-26.89-27.83-3.17h-.13l-17.35,2L422.86,268l-1.05.12L420,289.47l-2.81,31.9,29.08,27.84,4.39,1.93.77.34,3.34,1.47,5.67,2.51,3.39,1.5.76.33,2.92,1.29,4,1.75,4,1.77h.1l9.41,4.13,27.72,16.21,14.11-20,.09-.14v-.06l15.89-24.85.33-.68Z"/><path class="cls-13" d="M422.7,286.89l-54.76,1.93.18,5,54.76-1.93Z"/><path class="cls-13" d="M404,266.2h-5V292h5Z"/><path class="cls-13" d="M323.84,328.33l-.65-4.92,1.49-.19,7.81-53.79v-2.31h5l0,2.85-8.37,57.68Z"/><path class="cls-12" d="M379.79,79.52,370.7,120l76.7,13.9,26.81-34.71Z"/><path class="cls-12" d="M325.77,446.78l15.14,18.73,10.37,12.78.39.48,1.19,1.49,9.57,3.41,2.05.72,10.36,3.69,2,.7,4.67,1.66,15.28,5.44,1.87.64,1.24.45L420,504.12l6.54-14.79,8.34-19,13.88-2.87,9.69-2L485.19,460l-6-11.84,13.32-6.76,7-3.54,1.42-1.71.82-.94,9.7-11.52.94-1.16,5.84-6.95,16.81-20L542.7,400v65.49h.23v36.19a14.11,14.11,0,0,1-8.71,13.07,13.93,13.93,0,0,1-5.4,1.09H341.2a14.81,14.81,0,0,1-14.57-12.22l-.06-.48a.17.17,0,0,1,0-.1l-.13-1.08v-.35a.11.11,0,0,1,0-.08l-.68-5.68.09-47.73Z"/><path class="cls-12" d="M358.3,245.09l-3.19,23.07-.26,1.86-.28,2-.07.6v.13l-.49-.07-5.86-.93-1.94-.32-1.82-.29-9.4-1.48-3.29-.53-5.61-.88v0l.1-50,19-5.31Z"/><path class="cls-13" d="M543.62,403.41l-78.31-45.76-20.39-6.27-.42-.4-29.95-28.65,6.57-61.43,4.94.52-6.32,59L447.51,347l19.81,6.08,78.8,46Z"/><path class="cls-13" d="M421.37,507.26l-72.08-25.63,38.51-72.77L374,402l-50.81-3.56.34-4.95,51.8,3.63,19.2,9.59-38.19,72.19L418.69,501l13.58-30.92L426,442.35h2.72l60.54-19.86,52.57-91.05,4.3,2.48-53.51,92.7L432,446.49l5.47,24.13Z"/><path class="cls-13" d="M367.56,401.43l-4.51-2.07,12.51-27.14-27.66-14.4,2.3-4.39L382.05,370Z"/><path class="cls-13" d="M430,333.05l-50.15,69.72,4,2.89L434.05,336Z"/><path class="cls-13" d="M451.54,349.43l-53.52,64,3.8,3.18,53.52-64Z"/><path class="cls-13" d="M411.42,420.57l-33.27,71,4.49,2.1,33.27-71Z"/><path class="cls-13" d="M396.36,519l-4.74-1.46.81-2.62,4.92-18.25v-.2l.23-.5,16.22-35.05v-.49l.42-.43.79-1.68v-.47l.42-.44,8.39-18.14,4.5,2.08-26.18,56.63-5.05,18.65Z"/><path class="cls-13" d="M450.29,440l-9-19-30.62,5.75-.91-4.87,34.37-6.47,10.64,22.43Z"/><path class="cls-13" d="M348.48,399.32l-5-.4,3.54-43.79.27-.47c23.67-41.68,20.33-81.35,20.3-81.74l-.22-2.47,4.94-.45.23,2.47c.15,1.67,3.47,41.33-20.66,84.17Z"/><path class="cls-13" d="M379.69,221.18l-4.88.91,9.45,50.18,4.87-.91Z"/><path class="cls-13" d="M358.31,274.92l-9.43-3.07,9-27.44.5-.66L489.55,70.65l7.91,6L366.78,249.07Z"/><path class="cls-13" d="M531.25,81.36,477.1,262.61l9.52,2.83L540.76,84.2Z"/><path class="cls-13" d="M463.15,215.91A81.27,81.27,0,0,1,429.71,209,104.9,104.9,0,0,1,402.86,191l-1.76-1.74,3.47-3.54,1.78,1.74a101.42,101.42,0,0,0,25.48,17c14.79,6.89,40.65,10.73,64.83-1.13l2.22-1.09,2.19,4.45-2.23,1.09A80.78,80.78,0,0,1,463.15,215.91Z"/><path class="cls-13" d="M435.48,231.74l-16.83-12.47,11.55-16,4,2.9-8.69,12,8.73,6.48,10.81-16,4.11,2.78Z"/><path class="cls-13" d="M356.05,114.08l-4.71,1.57,33.58,100.21,4.7-1.57Z"/><path class="cls-13" d="M366.89,154.27l-.46,4.94,60,5.5.45-4.93Z"/><path class="cls-13" d="M356.93,248.32,339,204l-15.21-3.78,1.2-4.81,17.66,4.38,18.93,46.62Z"/><path class="cls-13" d="M478.09,451.46l-2.24-4.41L498,435.86l36.83-43.79,3.8,3.19-37.16,44.17-.78.62Z"/><path class="cls-13" d="M421.39,507.23,350,482.89l-2-2.6-24.63-31.35v-.86h2.49l1.94-1.52L353,478.67l65.73,22.4,14.43-32.87,48.38-10-13.05-25.92,4.42-2.22,16,31.68-52.19,10.77Z"/><path class="cls-13" d="M525.79,287.84,501,300.8l2.31,4.39,24.75-13Z"/><path class="cls-13" d="M485.48,327.57l-5,38.89,4.92.63,4.95-38.89Z"/><path class="cls-13" d="M461.55,257.3l-4.22,2.6,21.93,35.57,4.23-2.6Z"/><path class="cls-13" d="M470.91,308.68l-55.29.95.08,4.95,55.29-.94Z"/><path class="cls-13" d="M501.86,319.91,499,324l36.7,25.92,2.87-4.05Z"/><path class="cls-11" d="M487.64,330.35a19.15,19.15,0,1,0-19.18-19.15A19.16,19.16,0,0,0,487.64,330.35Z"/><path class="cls-13" d="M427,446.26c-13-19.12-25.37-31.29-36.84-36.17l1.94-4.56c12.38,5.27,25.45,18,39,37.93Z"/><path class="cls-13" d="M541.69,320.37l-2.85-3.53c-5.45-6.44-10.94-13.59-16.35-21.27l-1.31-1.87c-5.27-7.59-10.62-15.92-15.92-24.76l-.57-.93c-2-.76-8-2.25-24.4-2.15h-.94c-5.11,0-11,.21-17.59.53-10.86.53-23.71,1.48-38.18,2.79-11,1-23.42,2.33-37,3.91-7.64.88-14.69,1.73-21.56,2.59l-.56.06c-.68.1-1.43.17-2.2.24h-.18a74.34,74.34,0,0,1-7.61.28c-2.12,0-4.31-.16-6.54-.38h-.12c-.73-.08-1.44-.16-2.16-.26s-1.37-.17-2.05-.28l-22.53-3.59,1.42-8.56,13.14,2.16,9.39,1.49c.48.08.94.15,1.42.21h.37c.57.08,1.13.15,1.7.2h.24c2,.21,4,.33,5.87.36q3.45,0,6.9-.26h.21c.57-.05,1.13-.12,1.69-.18l.5-.06c6.93-.87,14-1.71,21.67-2.6,13.63-1.59,26.15-2.9,37.18-3.92,14.6-1.37,27.57-2.33,38.57-2.86,6.79-.34,12.91-.52,18.19-.55H480c14.52-.05,23.93.94,28.72,3.15h.16l1,.62a6.6,6.6,0,0,1,2.22,1.92,6.49,6.49,0,0,1,1.14,2.69c4.74,7.86,9.52,15.3,14.22,22.13l.76,1.07c5.61,8.1,11.37,15.62,17,22.35l.19.22.2.23,2.72,3.38Zm-3-3.67.1.12Zm-59.88-51h0Z"/><path class="cls-13" d="M486.07,76.37,485.36,85,545,90l.71-8.65Z"/><path class="cls-13" d="M522.69,146.41h-5.17l-.76-.3c-30.82-12-62-8.82-68-8.05l-.75.1-.72.1-.71-.13L321.27,114.38l1.61-8.52,124.6,23.61h.14c6.26-.8,38.95-4.16,71.48,8.28h3.53Z"/><path class="cls-13" d="M530.9,115,379.11,83.41l-34.84-4.93,1.1-7.82,35.23,5,151.91,31.61Z"/><path class="cls-12" d="M543,218.39l-.12,26.13a14.83,14.83,0,0,1,.12-26.13Z"/><path class="cls-14" d="M518.31,100.76c0,6.95-13.84,22.79-13.84,22.79s-13.84-15.87-13.84-22.79,6.2-12.59,13.84-12.59S518.31,93.81,518.31,100.76Z"/><path class="cls-14" d="M504.47,114.09a13.89,13.89,0,1,0-13.84-13.88A13.86,13.86,0,0,0,504.47,114.09Z"/><path class="cls-3" d="M504.47,109.7a9.49,9.49,0,1,0-9.46-9.49A9.48,9.48,0,0,0,504.47,109.7Z"/><path class="cls-14" d="M508.92,98.46H500v6.38h8.91Z"/><path class="cls-14" d="M504.47,93.73l5.83,4.73H498.63Z"/><path class="cls-3" d="M506,101.28h-3.07v3.55H506Z"/><path class="cls-15" d="M475.93,359.47c0,7-13.84,22.79-13.84,22.79s-13.85-15.86-13.85-22.79,6.21-12.59,13.85-12.59S475.93,352.49,475.93,359.47Z"/><path class="cls-15" d="M462.09,372.78a13.89,13.89,0,1,0-13.85-13.89A13.87,13.87,0,0,0,462.09,372.78Z"/><path class="cls-3" d="M462.09,368.39a9.5,9.5,0,1,0-9.47-9.5A9.48,9.48,0,0,0,462.09,368.39Z"/><path class="cls-15" d="M463.79,357.27v-4.1h-3.4v4.1h-3.73v3.14h3.73v4.23h3.4v-4.23h3.69v-3.13Z"/><path class="cls-14" d="M368.89,282.6c0,6.95-13.87,22.75-13.87,22.75s-13.84-15.87-13.84-22.79S347.38,270,355,270,368.89,275.64,368.89,282.6Z"/><path class="cls-14" d="M355,295.93a13.89,13.89,0,1,0-13.84-13.88A13.87,13.87,0,0,0,355,295.93Z"/><path class="cls-3" d="M355,291.54a9.5,9.5,0,1,0-9.46-9.49A9.48,9.48,0,0,0,355,291.54Z"/><path class="cls-14" d="M356.37,280.42V276.3H353v4.12h-3.69v3.13H353v4.22h3.4v-4.22h3.69v-3.13Z"/><path class="cls-16" d="M471.27,216.69c0,6.95-13.85,22.79-13.85,22.79s-13.84-15.86-13.84-22.79,6.2-12.59,13.84-12.59S471.27,209.7,471.27,216.69Z"/><path class="cls-16" d="M457.42,230a13.89,13.89,0,1,0-13.84-13.89A13.87,13.87,0,0,0,457.42,230Z"/><path class="cls-3" d="M457.42,225.6a9.5,9.5,0,1,0-9.46-9.5A9.48,9.48,0,0,0,457.42,225.6Z"/><path class="cls-16" d="M457.42,210.19l1.84,3.14,3.55.79-2.42,2.72.36,3.62L457.42,219l-3.32,1.45.35-3.62L452,214.12l3.55-.79Z"/><path class="cls-17" d="M392.14,436.58c0,7-13.84,22.79-13.84,22.79s-13.84-15.86-13.84-22.79S370.66,424,378.3,424,392.14,429.63,392.14,436.58Z"/><path class="cls-17" d="M378.29,449.92A13.89,13.89,0,1,0,364.45,436,13.86,13.86,0,0,0,378.29,449.92Z"/><path class="cls-3" d="M378.29,445.52a9.49,9.49,0,1,0-9.46-9.49A9.47,9.47,0,0,0,378.29,445.52Z"/><path class="cls-17" d="M378.29,440.1l-5.3-4.78.66-.73,4.41,4,4.8-8.08.84.49Z"/><path class="cls-3" d="M510.88,453.82a19.88,19.88,0,1,0-19.81-19.88A19.85,19.85,0,0,0,510.88,453.82Z"/><path class="cls-18" d="M510.88,429.13a4.8,4.8,0,0,0-4.5,2.94,4.84,4.84,0,0,0-.29,2.79,4.82,4.82,0,0,0,8.75,1.77,4.84,4.84,0,0,0,.82-2.69,4.81,4.81,0,0,0-4.78-4.81Zm0,8.67a3.89,3.89,0,0,1-2.14-.64,3.85,3.85,0,0,1-1.42-1.72,3.76,3.76,0,0,1-.23-2.22,3.85,3.85,0,0,1,1-2,3.84,3.84,0,0,1,4.2-.84,3.85,3.85,0,0,1,1.27,6.26A3.91,3.91,0,0,1,510.88,437.8Z"/><path class="cls-18" d="M520.92,432.37a10.21,10.21,0,0,0-8.47-8.51v-2.33h-3.14v2.33a10.05,10.05,0,0,0-8.49,8.52H498.5v3.14h2.33c0,.21.08.41.13.62a10.21,10.21,0,0,0,8.35,7.9v2.33h3.14V444a10.21,10.21,0,0,0,8.47-8.51h2.34v-3.14Zm1.36,2.17h-2.23l0,.45a9.19,9.19,0,0,1-8.1,8.13l-.42,0v2.23H510.3v-2.24h-.44a9.15,9.15,0,0,1-5.4-2.58,9.25,9.25,0,0,1-2.67-5.36V435l-.05-.44h-2.21V433.4h2.22V433a9,9,0,0,1,8.1-8.12l.44,0v-2.23h1.19v2.23l.44,0A9.21,9.21,0,0,1,520,433l0,.44h2.22Z"/><path class="cls-3" d="M543,465.51V501.7a13.9,13.9,0,0,1-1.06,5.4,14.11,14.11,0,0,1-13,8.75H341.21a14.79,14.79,0,0,1-14.59-12.21,5.78,5.78,0,0,1-.13-.93v-.32h0a0,0,0,0,1,0-.05V502a.61.61,0,0,1,0-.19V465.56Z"/><path class="cls-11" d="M359,478.76H348a5.5,5.5,0,0,0-5.51,5.5v11.07a5.51,5.51,0,0,0,5.51,5.51h11a5.51,5.51,0,0,0,5.51-5.51V484.26A5.51,5.51,0,0,0,359,478.76Z"/><path class="cls-11" d="M393.28,478.76h-11a5.51,5.51,0,0,0-5.51,5.5v11.07a5.51,5.51,0,0,0,5.51,5.51h11a5.51,5.51,0,0,0,5.51-5.51V484.26A5.5,5.5,0,0,0,393.28,478.76Z"/><path class="cls-12" d="M443.25,456.68H421.69a5.51,5.51,0,0,0-5.51,5.5v21.67a5.51,5.51,0,0,0,5.51,5.51h21.56a5.51,5.51,0,0,0,5.51-5.51V462.18A5.51,5.51,0,0,0,443.25,456.68Z"/><path class="cls-11" d="M483.09,477.88h-11a5.5,5.5,0,0,0-5.51,5.51v11.06A5.51,5.51,0,0,0,472.1,500h11a5.51,5.51,0,0,0,5.51-5.51V483.39A5.51,5.51,0,0,0,483.09,477.88Z"/><path class="cls-11" d="M520.06,477.88h-11a5.51,5.51,0,0,0-5.51,5.51v11.06a5.51,5.51,0,0,0,5.51,5.51h11a5.51,5.51,0,0,0,5.51-5.51V483.39A5.5,5.5,0,0,0,520.06,477.88Z"/><path class="cls-19" d="M546.66,99.67V490.49c0,15.68-12.41,28.5-27.59,28.5H348.89a27.07,27.07,0,0,1-17.39-6.36,29,29,0,0,1-10.4-22.4V94.91a32.37,32.37,0,0,1,11.76-25A30.16,30.16,0,0,1,352,63H511.14c15.88,0,29.39,10.89,33.92,25.79a37.39,37.39,0,0,1,1.6,10.92Z"/><path class="cls-5" d="M375,591.84c8.22,0,14.88-1.83,14.88-4.08s-6.66-4.09-14.88-4.09-14.88,1.83-14.88,4.09S366.82,591.84,375,591.84Z"/><path class="cls-5" d="M188.34,591.84c60.73,0,110-4.9,110-10.94S249.07,570,188.34,570s-110,4.9-110,10.95S127.6,591.84,188.34,591.84Z"/><path class="cls-20" d="M188.92,382.15l-3.12,3.22L361.73,556.26l3.12-3.22Z"/><path class="cls-21" d="M278.47,430.06l-15.79,13a2.86,2.86,0,0,0-.39,4l1.37,1.67a2.88,2.88,0,0,0,4,.38l15.8-13a2.87,2.87,0,0,0,.39-4l-1.38-1.67A2.88,2.88,0,0,0,278.47,430.06Z"/><path class="cls-18" d="M325.13,423.22c-25.83-4.11-41.37,6.18-55.75,18.67s-6.49,20.24-6.49,20.24L375.34,570.27l10.13,3.22S417,543,429.22,527.92a10.26,10.26,0,0,0-.49-13.45C410.06,494.46,343.81,426.21,325.13,423.22Z"/><path class="cls-21" d="M382.39,590.3a17.91,17.91,0,1,0-18.17-17.65A17.92,17.92,0,0,0,382.39,590.3Z"/><path class="cls-22" d="M382.27,581.35a9,9,0,1,0-9.1-8.83A9,9,0,0,0,382.27,581.35Z"/><path class="cls-20" d="M412.16,546.11l-122-118.51c-.63.28-1.21.56-1.77.86l122.5,119Z"/><path class="cls-23" d="M240.67,541.6s5.92,5.08.83,11,2,8.92,2,8.92l20.9-15-10.62-16.11Z"/><path class="cls-21" d="M208,575.75s-2.22,3.21,2.14,4.29,26.15-2.15,26.15-2.15l38.14-18.22s.54-4.82-3.81-5.88-34.77,17.67-34.77,17.67S218.38,572,208,575.75Z"/><path class="cls-6" d="M233.79,551.47a3.36,3.36,0,0,1,.89-1.06,3.18,3.18,0,0,1,1.24-.6,3.21,3.21,0,0,1,1.38,0,3.26,3.26,0,0,1,1.27.54,12.87,12.87,0,0,0,11.85,2c8.4-2.8,13.07-10.76,13.07-10.76s8.41,10.06,8.54,12.2S236,572.88,236,572.88s-28.68,4.52-27.78,2.3S224,565.84,227.1,563.4C229.33,561.68,231.74,555.45,233.79,551.47Z"/><path class="cls-3" d="M230.54,556.47l2.15-3.21s8.71,1.55,7.53,3.63S230.54,556.47,230.54,556.47Z"/><path class="cls-3" d="M228.4,560.76l2.15-3.21s6.6,2.28,5.54,4.12S228.4,560.76,228.4,560.76Z"/><path class="cls-3" d="M224,565.23l3.36-2.33s6.22,1.28,5,3S224,565.23,224,565.23Z"/><path class="cls-23" d="M136.18,555.39s2.14,7.47-5.36,9.64-3.22,8.58-3.22,8.58l25.74-1.08V553.26Z"/><path class="cls-24" d="M89,574.33s-4.28,4.66,0,7.85,70.78-1.07,70.78-1.07-1.08-7.46-4.29-8.58S89,574.33,89,574.33Z"/><path class="cls-6" d="M124.07,558.31a4.06,4.06,0,0,1,3.28-.73,4,4,0,0,1,1.56.72,3.88,3.88,0,0,1,1.12,1.3c1.42,2.64,2.94,5.87,2.94,7.58,0,3.21,18.23,1.07,18.23,1.07l4.29-4.28,3.21,12.86L87.91,577.9s-2.68-4.82,8-8C105.51,567,114.62,565.41,124.07,558.31Z"/><path class="cls-3" d="M116.86,562.18l4.29-2.14s5.89,6.61,3.74,7.68S116.86,562.18,116.86,562.18Z"/><path class="cls-3" d="M111.52,565.22l3.74-2s5.15,6.06,3.27,7S111.52,565.22,111.52,565.22Z"/><path class="cls-3" d="M106.15,566.8l3.74-1.76s5.15,5.45,3.27,6.34S106.15,566.8,106.15,566.8Z"/><path class="cls-21" d="M202.66,356.67l1.06,87.83s4.29,20.36-3.21,23.57-21.48-4.28-23.59-6.43-23.59-76-22.51-87.86-1.08-23.57,3.21-30S196.25,323.42,202.66,356.67Z"/><path class="cls-21" d="M179.07,441.82S167.59,448,178,463.28s64.34,83.44,64.34,83.44l18.43-11.2s-16.9-35.15-27.75-49.31S195.37,430.79,179.07,441.82Z"/><path class="cls-25" d="M195.16,370l7,1.6-23.06,83,9.12,21.44-15.55-22.5,13.94-73.94Z"/><path class="cls-21" d="M144.22,344.32,141,439.68s-4.29,41.79,12.87,41.79,23.59-41.79,23.59-41.79l11.79-57.86s10.72-6.43,15-16.07,2.15-17.14-4.29-22.5S176.39,325,159.24,331.48,144.22,344.32,144.22,344.32Z"/><path class="cls-21" d="M152.8,444s-11.26,0-11.26,24.64-9.12,94.26-9.12,94.26h22.52s8.58-34.29,11.8-51.43,8.58-37.51,2.14-51.43S152.8,444,152.8,444Z"/><path class="cls-26" d="M148,351.81s1.08,19.29,0,28.93-1.07,51.43-2.15,56.79-3.21,13.93-2.14,19.29,1.07,32.14,0,38.57S139.39,535,139.39,535l-4.28,27.88,5.36-1.07s2.15-42.86,3.22-48.22,1.07-28.93,2.14-34.29,3.22-23.57,4.29-32.13-1.07-25.72-1.07-37.51S150.12,369,150.12,369l1.07-25.72-4.28,1.08Z"/><path class="cls-23" d="M183.9,197s5.36,0,7.47,7.47,15-3.21,15-3.21-7.47-12.86-6.43-22.5S183.9,197,183.9,197Z"/><path class="cls-23" d="M150.65,147.7s5.5,13.62,6.54,19c.93,4.73-3.08,11-3.38,15.7a2.67,2.67,0,0,0,1.87,2.7,4.6,4.6,0,0,0,2.44.16,4.65,4.65,0,0,0,2.18-1.09s-1.07,16.07,9.65,16.07,23.59-6.43,29-18.22,7.47-26.78,2.15-35.35-10.72-19.29-24.67-16.07S158.16,128.41,150.65,147.7Z"/><path class="cls-8" d="M179.15,183.52c1.94-9.69-7-21.9-10.28-26.13s-5.36-1.08-9.64,0-5.9,2.67-11.27-.54-8.58-3.21-9.64-10.71a13.23,13.23,0,0,1,3.46-11c.5-.53,1-1.08,1.46-1.64,1.31-1.58,4.39-4.88,8.4-4.88a47.63,47.63,0,0,1,9.77-.16c5.35.34,5.8,1.1,12.23,0s6.8-3.84,13.5-2.17c4.29,1.07,19.84,16.61,18.76,28.93-.57,6.6-3.12,19.05-3.12,19.05s-7.06-6.2-10.28-10.48-1.07-7.47-5.36-9.64-2.44,1-4.59,7.46-.77,12.87,3.52,15,7.47,2.14,9.65,6.43-3.22,9.64-11.8,13.93-13.5,8.74-19.93,3.38c-5.54-4.61-5.06-5.9-4.21-11.8C159.76,188.57,177.46,191.94,179.15,183.52Z"/><path class="cls-20" d="M71.79,277l-2.36,2.18,27.65,29.91,2.36-2.18Z"/><path class="cls-6" d="M190.34,206.63s-10.73,4.28-19.31,22.5-17.15,37.51-22.52,62.14-10.72,60-10.72,60A192.14,192.14,0,0,1,171,348.07c17.16,0,44,8.57,44,8.57s-5.36-25.71-5.36-37.5,4.29-40.72,11.8-57.86,9.64-25.72,7.47-34.29-10.72-26.78-21.48-30C194.62,198,190.34,206.63,190.34,206.63Z"/><path class="cls-3" d="M180.15,204l1.07,13.94s9.55-9.34,29.31-24.7l-.64-5.32A139.86,139.86,0,0,0,180.15,204Z"/><path class="cls-23" d="M180.15,255.38l-25.74,50.4s-5.75,12.44,8.1,15.61a4.82,4.82,0,0,0,2.5-.1,4.76,4.76,0,0,0,2.12-1.32c10.61-11.34,31.75-52.26,31.75-52.26s9.65-13.93,0-19.29S180.15,255.38,180.15,255.38Z"/><path class="cls-23" d="M100.26,298.81l65.37-3.21s21.48,7.47-1.07,25.72c-20.38-3.21-65.95-9.11-65.95-9.11S88.46,303.06,100.26,298.81Z"/><path class="cls-23" d="M100.26,303.06s2.15-6.43-3.22-9.64-8.58-2.15-8.58-2.15-17.15-2.14-17.15,1.08,7.47,2.14,7.47,2.14,3.21,1.08,1.07,3.21c-1.07,0-3.21-1.07-4.29,0s0,4.29,2.15,5.36,0,3.21,2.15,5.36,3.74,2.68,7,3.73,9.65,0,9.65,0S104.54,309.49,100.26,303.06Z"/><path class="cls-20" d="M221.73,298.93l-3.87,15.46s-8.7-9.66-12.57-20.29-8.71-22.22-8.71-22.22l6.78-6.76S215.93,296,221.73,298.93Z"/><path class="cls-20" d="M234.89,223.38s15.43.61,19,14.29c7,5.11,10,9.09,9.56,18.75S263,269,265.91,273s7.89,9,3.2,23.34-9.35,28.65-14.61,31.33-22.76,2-30.9-.24-16.38-2.58-18-14.24S217.53,272,219.9,264.38s6.47-33.6,6.47-33.6S226.48,227.89,234.89,223.38Z"/><path class="cls-20" d="M241.51,227.78l-8.93,7.75s-13.23-20-20.26-22.79-18-3.64-23,5c-2.5.51-1.52-1.41-1.52-1.41a15.49,15.49,0,0,1,12.95-6.85C209.79,209.42,229.87,212.09,241.51,227.78Z"/><path class="cls-20" d="M245.44,229l-.21-.82a6.6,6.6,0,0,0,3.79-2.92,7,7,0,0,0,.13-5.81c-.29-.86-.79-1.86-1.52-1.92-1.86,0-4.67,5.32-6.09,8.7l-.77-.32c.39-.93,3.9-9.33,6.93-9.21.93,0,1.75.88,2.29,2.5a8.06,8.06,0,0,1-.19,6.54A7.36,7.36,0,0,1,245.44,229Z"/><path class="cls-18" d="M270.54,289.34s-19.61,8.14-32.74,7.92a2.66,2.66,0,0,0-2.37,1.36,2.67,2.67,0,0,0,.07,2.73c7.47,12.3,22.13,15.07,26.39,11.77C266.63,309.46,270.54,289.34,270.54,289.34Z"/><path class="cls-7" d="M211.5,222.66s-15.67-1.13-23.66,22c-6.59,19.05-7.47,21.3-7.47,21.3l18.52,9.8s18.55-24.16,20.35-37.33S211.5,222.66,211.5,222.66Z"/><path class="cls-6" d="M212.28,221.21s-16-3.31-25.84,19.15l-9.8,22.44,19.78,10.27s18.35-22.4,21.63-35.25S212.28,221.21,212.28,221.21Z"/></g></g></svg>